<svg width="155" height="36" viewBox="0 0 155 36" fill="none" xmlns="http://www.w3.org/2000/svg">
<path d="M24.6629 9.0385C25.1978 8.88086 25.4867 8.29777 25.2439 7.79571C23.183 3.5343 18.8846 0.804749 13.7396 0.804749C10.0766 0.804749 7.0627 2.00513 4.60521 4.45207C2.19408 6.85284 0.988525 9.8538 0.988525 13.5011C0.988525 17.1484 2.19408 20.1494 4.60521 22.5963C7.0627 24.9971 10.0766 26.1975 13.7396 26.1975C18.8846 26.1975 23.183 23.4679 25.2439 19.2065C25.4867 18.7045 25.1978 18.1214 24.6629 17.9637L20.662 16.7846C20.2031 16.6493 19.7214 16.8798 19.4741 17.2894C18.2907 19.2494 16.1814 20.4264 13.7396 20.4264C11.8386 20.4264 10.2157 19.7801 8.91741 18.4412C7.61911 17.1023 6.96996 15.4864 6.96996 13.5011C6.96996 11.5159 7.61911 9.89997 8.91741 8.56108C10.2157 7.22219 11.8386 6.57583 13.7396 6.57583C16.1814 6.57583 18.2907 7.75282 19.4741 9.71284C19.7214 10.1224 20.2031 10.3529 20.662 10.2177L24.6629 9.0385Z" fill="#171D45"/>
<path d="M32.9272 22.5963C35.3847 24.9971 38.3986 26.1975 42.0616 26.1975C45.7247 26.1975 48.7386 24.9971 51.1961 22.5963C53.6536 20.1494 54.8591 17.1484 54.8591 13.5011C54.8591 9.8538 53.6536 6.85284 51.1961 4.45207C48.7386 2.00513 45.7247 0.804749 42.0616 0.804749C38.3986 0.804749 35.3847 2.00513 32.9272 4.45207C30.5161 6.85284 29.3105 9.8538 29.3105 13.5011C29.3105 17.1484 30.5161 20.1494 32.9272 22.5963ZM37.2394 8.56108C38.5377 7.22219 40.1606 6.57583 42.0616 6.57583C43.9627 6.57583 45.5856 7.22219 46.8839 8.56108C48.1822 9.89997 48.8313 11.5159 48.8313 13.5011C48.8313 15.4864 48.1822 17.1023 46.8839 18.4412C45.5856 19.7801 43.9627 20.4264 42.0616 20.4264C40.1606 20.4264 38.5377 19.7801 37.2394 18.4412C35.9411 17.1023 35.292 15.4864 35.292 13.5011C35.292 11.5159 35.9411 9.89997 37.2394 8.56108Z" fill="#171D45"/>
<path d="M63.6739 25.505C64.2006 25.505 64.6276 25.0779 64.6276 24.551V11.3774C64.6276 8.46874 66.8533 6.29882 69.6817 6.29882C72.5101 6.29882 74.6894 8.46874 74.6894 11.3774V24.551C74.6894 25.0779 75.1164 25.505 75.6432 25.505H79.5316C80.0584 25.505 80.4854 25.0779 80.4854 24.551V11.3774C80.4854 8.46874 82.711 6.29882 85.5395 6.29882C88.3679 6.29882 90.5472 8.46874 90.5472 11.3774V24.551C90.5472 25.0779 90.9742 25.505 91.5009 25.505H95.343C95.8698 25.505 96.2968 25.0779 96.2968 24.551V9.7153C96.2968 7.17602 95.3694 5.05226 93.5611 3.34402C91.7527 1.63578 89.4807 0.804749 86.6987 0.804749C83.8831 0.804749 81.6129 1.69921 79.9415 3.5147C79.4512 4.04732 78.5524 4.04718 78.0638 3.51295C76.4045 1.69863 74.1734 0.804749 71.3973 0.804749C69.1331 0.804749 67.2254 1.48526 65.6981 2.86995C65.3166 3.21577 64.6276 2.96616 64.6276 2.45124C64.6276 1.92438 64.2006 1.49728 63.6739 1.49728H59.7854C59.2587 1.49728 58.8316 1.92438 58.8316 2.45124V24.551C58.8316 25.0779 59.2587 25.505 59.7854 25.505H63.6739Z" fill="#171D45"/>
<path d="M105.108 35.893C105.634 35.893 106.061 35.4659 106.061 34.939V25.6988C106.061 24.8581 107.054 24.3694 107.788 24.7786C109.475 25.7184 111.319 26.1976 113.341 26.1976C116.68 26.1976 119.462 24.9972 121.734 22.5964C124.006 20.1495 125.119 17.1485 125.119 13.5012C125.119 9.85385 124.006 6.85288 121.734 4.45211C119.462 2.00518 116.68 0.804788 113.341 0.804788C110.923 0.804788 108.758 1.4904 106.815 2.82971C106.503 3.04436 106.061 2.82956 106.061 2.45128C106.061 1.92442 105.634 1.49732 105.108 1.49732H101.219C100.692 1.49732 100.265 1.92442 100.265 2.45128V34.939C100.265 35.4659 100.692 35.893 101.219 35.893H105.108ZM117.19 8.56113C118.442 9.90002 119.091 11.5159 119.091 13.5012C119.091 15.4864 118.442 17.1023 117.19 18.4412C115.938 19.7801 114.408 20.4265 112.599 20.4265C110.791 20.4265 109.261 19.7801 108.009 18.4412C106.757 17.1023 106.154 15.4864 106.154 13.5012C106.154 11.5159 106.757 9.90002 108.009 8.56113C109.261 7.22224 110.791 6.57587 112.599 6.57587C114.408 6.57587 115.938 7.22224 117.19 8.56113Z" fill="#171D45"/>
<path d="M132.705 22.5964C135.163 24.9972 138.177 26.1976 141.84 26.1976C145.503 26.1976 148.517 24.9972 150.974 22.5964C153.432 20.1495 154.637 17.1485 154.637 13.5012C154.637 9.85385 153.432 6.85288 150.974 4.45211C148.517 2.00518 145.503 0.804788 141.84 0.804788C138.177 0.804788 135.163 2.00518 132.705 4.45211C130.294 6.85288 129.089 9.85385 129.089 13.5012C129.089 17.1485 130.294 20.1495 132.705 22.5964ZM137.018 8.56113C138.316 7.22224 139.939 6.57587 141.84 6.57587C143.741 6.57587 145.364 7.22224 146.662 8.56113C147.96 9.90002 148.61 11.5159 148.61 13.5012C148.61 15.4864 147.96 17.1023 146.662 18.4412C145.364 19.7801 143.741 20.4265 141.84 20.4265C139.939 20.4265 138.316 19.7801 137.018 18.4412C135.719 17.1023 135.07 15.4864 135.07 13.5012C135.07 11.5159 135.719 9.90002 137.018 8.56113Z" fill="#171D45"/>
</svg>
