<svg width="93" height="22" viewBox="0 0 93 22" fill="none" xmlns="http://www.w3.org/2000/svg">
<path d="M14.6834 5.32343C15.0043 5.22885 15.1777 4.87899 15.032 4.57775C13.7955 2.02091 11.2164 0.383179 8.12948 0.383179C5.93165 0.383179 4.12331 1.10341 2.64881 2.57157C1.20214 4.01203 0.478806 5.81261 0.478806 8.001C0.478806 10.1894 1.20214 11.99 2.64881 13.4581C4.12331 14.8986 5.93165 15.6188 8.12948 15.6188C11.2164 15.6188 13.7955 13.9811 15.032 11.4243C15.1777 11.123 15.0043 10.7732 14.6834 10.6786L12.2829 9.97107C12.0075 9.88992 11.7185 10.0282 11.5702 10.274C10.8601 11.45 9.59454 12.1562 8.12948 12.1562C6.98883 12.1562 6.01511 11.7684 5.23613 10.965C4.45716 10.1617 4.06767 9.19215 4.06767 8.001C4.06767 6.80985 4.45716 5.84031 5.23613 5.03698C6.01511 4.23364 6.98883 3.84583 8.12948 3.84583C9.59454 3.84583 10.8601 4.55202 11.5702 5.72803C11.7185 5.97379 12.0075 6.11209 12.2829 6.03094L14.6834 5.32343Z" fill="#828EAD"/>
<path d="M19.642 13.4581C21.1165 14.8986 22.9248 15.6188 25.1227 15.6188C27.3205 15.6188 29.1288 14.8986 30.6033 13.4581C32.0778 11.99 32.8012 10.1894 32.8012 8.001C32.8012 5.81261 32.0778 4.01203 30.6033 2.57157C29.1288 1.10341 27.3205 0.383179 25.1227 0.383179C22.9248 0.383179 21.1165 1.10341 19.642 2.57157C18.1953 4.01203 17.472 5.81261 17.472 8.001C17.472 10.1894 18.1953 11.99 19.642 13.4581ZM22.2293 5.03698C23.0083 4.23364 23.982 3.84583 25.1227 3.84583C26.2633 3.84583 27.237 4.23364 28.016 5.03698C28.795 5.84031 29.1845 6.80985 29.1845 8.001C29.1845 9.19215 28.795 10.1617 28.016 10.965C27.237 11.7684 26.2633 12.1562 25.1227 12.1562C23.982 12.1562 23.0083 11.7684 22.2293 10.965C21.4503 10.1617 21.0609 9.19215 21.0609 8.001C21.0609 6.80985 21.4503 5.84031 22.2293 5.03698Z" fill="#828EAD"/>
<path d="M38.09 15.2033C38.406 15.2033 38.6623 14.9471 38.6623 14.6309V6.72675C38.6623 4.98157 39.9977 3.67962 41.6947 3.67962C43.3918 3.67962 44.6993 4.98157 44.6993 6.72675V14.6309C44.6993 14.9471 44.9555 15.2033 45.2716 15.2033H47.6047C47.9207 15.2033 48.1769 14.9471 48.1769 14.6309V6.72675C48.1769 4.98157 49.5123 3.67962 51.2094 3.67962C52.9064 3.67962 54.214 4.98157 54.214 6.72675V14.6309C54.214 14.9471 54.4702 15.2033 54.7862 15.2033H57.0915C57.4075 15.2033 57.6637 14.9471 57.6637 14.6309V5.72951C57.6637 4.20594 57.1073 2.93169 56.0223 1.90674C54.9373 0.8818 53.5741 0.383179 51.9049 0.383179C50.2155 0.383179 48.8534 0.919854 47.8506 2.00915C47.5564 2.32872 47.0171 2.32863 46.724 2.0081C45.7284 0.919509 44.3897 0.383179 42.7241 0.383179C41.3655 0.383179 40.2209 0.791483 39.3045 1.6223C39.0757 1.82979 38.6623 1.68003 38.6623 1.37107C38.6623 1.05496 38.406 0.798696 38.09 0.798696H35.7569C35.4409 0.798696 35.1847 1.05496 35.1847 1.37107V14.6309C35.1847 14.9471 35.4409 15.2033 35.7569 15.2033H38.09Z" fill="#828EAD"/>
<path d="M62.9503 21.4361C63.2663 21.4361 63.5225 21.1799 63.5225 20.8637V15.3196C63.5225 14.8152 64.1183 14.522 64.5588 14.7675C65.5704 15.3314 66.6772 15.6189 67.8904 15.6189C69.8935 15.6189 71.5627 14.8986 72.9259 13.4582C74.2891 11.99 74.9568 10.1894 74.9568 8.00104C74.9568 5.81264 74.2891 4.01206 72.9259 2.5716C71.5627 1.10344 69.8935 0.383202 67.8904 0.383202C66.4392 0.383202 65.1403 0.794569 63.9744 1.59816C63.7875 1.72694 63.5225 1.59807 63.5225 1.3711C63.5225 1.05498 63.2663 0.79872 62.9503 0.79872H60.6172C60.3012 0.79872 60.045 1.05498 60.045 1.3711V20.8637C60.045 21.1799 60.3012 21.4361 60.6172 21.4361H62.9503ZM70.1995 5.03701C70.9507 5.84034 71.3401 6.80989 71.3401 8.00104C71.3401 9.19219 70.9507 10.1617 70.1995 10.9651C69.4483 11.7684 68.5303 12.1562 67.4452 12.1562C66.3602 12.1562 65.4422 11.7684 64.691 10.9651C63.9398 10.1617 63.5782 9.19219 63.5782 8.00104C63.5782 6.80989 63.9398 5.84034 64.691 5.03701C65.4422 4.23367 66.3602 3.84585 67.4452 3.84585C68.5303 3.84585 69.4483 4.23367 70.1995 5.03701Z" fill="#828EAD"/>
<path d="M79.5089 13.4582C80.9834 14.8986 82.7917 15.6189 84.9896 15.6189C87.1874 15.6189 88.9958 14.8986 90.4703 13.4582C91.9447 11.99 92.6681 10.1894 92.6681 8.00104C92.6681 5.81264 91.9447 4.01206 90.4703 2.5716C88.9958 1.10344 87.1874 0.383202 84.9896 0.383202C82.7917 0.383202 80.9834 1.10344 79.5089 2.5716C78.0622 4.01206 77.3389 5.81264 77.3389 8.00104C77.3389 10.1894 78.0622 11.99 79.5089 13.4582ZM82.0962 5.03701C82.8752 4.23367 83.8489 3.84585 84.9896 3.84585C86.1302 3.84585 87.104 4.23367 87.8829 5.03701C88.6619 5.84034 89.0514 6.80989 89.0514 8.00104C89.0514 9.19219 88.6619 10.1617 87.8829 10.9651C87.104 11.7684 86.1302 12.1562 84.9896 12.1562C83.8489 12.1562 82.8752 11.7684 82.0962 10.9651C81.3172 10.1617 80.9278 9.19219 80.9278 8.00104C80.9278 6.80989 81.3172 5.84034 82.0962 5.03701Z" fill="#828EAD"/>
</svg>
