<svg width="25" height="24" viewBox="0 0 25 24" fill="none" xmlns="http://www.w3.org/2000/svg">
<path d="M14.6828 2.40043C14.6828 1.07494 15.757 0.000427246 17.0822 0.000427246H21.8812C23.2064 0.000427246 24.2806 1.07494 24.2806 2.40043V7.20043C24.2806 8.52591 23.2064 9.60043 21.8812 9.60043H17.0822C15.757 9.60043 14.6828 8.52591 14.6828 7.20043V2.40043Z" fill="#828EAD"/>
<path d="M14.6827 16.8004C14.6827 15.4749 15.757 14.4004 17.0822 14.4004H21.8812C23.2063 14.4004 24.2806 15.4749 24.2806 16.8004V21.6004C24.2806 22.9259 23.2063 24.0004 21.8812 24.0004H17.0822C15.757 24.0004 14.6827 22.9259 14.6827 21.6004V16.8004Z" fill="#828EAD"/>
<path d="M0.28595 16.8004C0.28595 15.4749 1.36023 14.4004 2.68542 14.4004H7.48435C8.80954 14.4004 9.88382 15.4749 9.88382 16.8004V21.6004C9.88382 22.9259 8.80954 24.0004 7.48435 24.0004H2.68542C1.36023 24.0004 0.28595 22.9259 0.28595 21.6004V16.8004Z" fill="#828EAD"/>
<path fill-rule="evenodd" clip-rule="evenodd" d="M14.6828 7.20043C14.6828 8.52591 13.6085 9.60043 12.2833 9.60043C10.9581 9.60043 9.88383 8.52591 9.88383 7.20043C9.88383 8.52591 8.80955 9.60043 7.48436 9.60043C8.80955 9.60043 9.88382 10.6749 9.88382 12.0004C9.88382 13.3259 8.80954 14.4004 7.48435 14.4004L9.88382 16.8004C9.88382 15.4749 10.9581 14.4004 12.2833 14.4004C13.6085 14.4004 14.6827 15.4749 14.6827 16.8004L17.0822 14.4004C15.757 14.4004 14.6827 13.3259 14.6827 12.0004C14.6827 10.6749 15.757 9.60043 17.0822 9.60043L14.6828 7.20043Z" fill="#828EAD"/>
<path d="M7.48436 0.000427246H2.68543C1.36024 0.000427246 0.285961 1.07494 0.285961 2.40043V7.20043C0.285961 8.52591 1.36024 9.60043 2.68543 9.60043H7.48436L9.88383 7.20043V2.40043C9.88383 1.07494 8.80955 0.000427246 7.48436 0.000427246Z" fill="#828EAD"/>
<path d="M9.88383 7.20043C9.88383 8.52591 8.80955 9.60043 7.48436 9.60043L9.88383 7.20043Z" fill="#828EAD"/>
</svg>
