<svg width="40" height="41" viewBox="0 0 40 41" fill="none" xmlns="http://www.w3.org/2000/svg">
<path d="M23.9947 4.50014C23.9947 2.291 25.7852 0.500137 27.9938 0.500137H35.992C38.2007 0.500137 39.9911 2.291 39.9911 4.50014V12.5001C39.9911 14.7093 38.2007 16.5001 35.992 16.5001H27.9938C25.7852 16.5001 23.9947 14.7093 23.9947 12.5001V4.50014Z" fill="#1551E5"/>
<path d="M0 28.5001C0 26.291 1.79046 24.5001 3.99911 24.5001H11.9973C14.206 24.5001 15.9964 26.291 15.9964 28.5001V36.5001C15.9964 38.7093 14.206 40.5001 11.9973 40.5001H3.99911C1.79046 40.5001 0 38.7093 0 36.5001V28.5001Z" fill="#1551E5"/>
<path fill-rule="evenodd" clip-rule="evenodd" d="M23.9947 12.5001C23.9947 14.7093 22.2042 16.5001 19.9956 16.5001C17.7869 16.5001 15.9965 14.7093 15.9965 12.5001C15.9965 14.7093 14.206 16.5001 11.9974 16.5001C14.206 16.5001 15.9964 18.291 15.9964 20.5001C15.9964 22.7093 14.206 24.5001 11.9973 24.5001L15.9964 28.5001C15.9964 26.291 17.7869 24.5001 19.9956 24.5001C22.2042 24.5001 23.9947 26.291 23.9947 28.5001L27.9938 24.5001C25.7851 24.5001 23.9947 22.7093 23.9947 20.5001C23.9947 18.291 25.7851 16.5001 27.9938 16.5001L23.9947 12.5001Z" fill="#1551E5"/>
<path d="M11.9974 0.500137H3.99913C1.79048 0.500137 1.95269e-05 2.291 1.95269e-05 4.50014V12.5001C1.95269e-05 14.7093 1.79048 16.5001 3.99913 16.5001H11.9974L15.9965 12.5001V4.50014C15.9965 2.291 14.206 0.500137 11.9974 0.500137Z" fill="#1551E5"/>
<path d="M15.9965 12.5001C15.9965 14.7093 14.206 16.5001 11.9974 16.5001L15.9965 12.5001Z" fill="#1551E5"/>
<path d="M23.9947 28.5001C23.9947 26.291 25.7851 24.5001 27.9938 24.5001H35.992C38.2006 24.5001 39.9911 26.291 39.9911 28.5001V36.5001C39.9911 38.7093 38.2006 40.5001 35.992 40.5001H27.9938C25.7851 40.5001 23.9947 38.7093 23.9947 36.5001V28.5001Z" fill="#1551E5"/>
</svg>
